<svg xmlns="http://www.w3.org/2000/svg" width="385" height="384.999" viewBox="0 0 385 384.999">
  <g id="calender" transform="translate(-157.5 -105.001)">
    <path id="Path_11896" data-name="Path 11896" d="M472.5,490h-245a70.005,70.005,0,0,1-70-70V227.5a70.005,70.005,0,0,1,70-70H245A17.5,17.5,0,0,1,262.5,175v26.25a8.75,8.75,0,0,0,17.5,0V175a17.5,17.5,0,0,1,17.5-17.5h105A17.5,17.5,0,0,1,420,175v26.25a8.75,8.75,0,0,0,17.5,0V175A17.5,17.5,0,0,1,455,157.5h17.5a70.005,70.005,0,0,1,70,70V420a70.005,70.005,0,0,1-70,70Zm-245-297.5a35,35,0,0,0-35,35V420a35,35,0,0,0,35,35h245a35,35,0,0,0,35-35V227.5a35,35,0,0,0-35-35v8.75a43.75,43.75,0,0,1-87.5,0V192.5H315v8.75a43.75,43.75,0,0,1-87.5,0Z"/>
    <path id="Path_11897" data-name="Path 11897" d="M525,297.5H175a17.5,17.5,0,1,1,0-35H525a17.5,17.5,0,1,1,0,35Z"/>
    <path id="Path_11898" data-name="Path 11898" d="M271.25,245a43.743,43.743,0,0,1-43.75-43.75v-52.5a43.75,43.75,0,0,1,87.5,0v52.5A43.743,43.743,0,0,1,271.25,245Zm0-105a8.751,8.751,0,0,0-8.75,8.75v52.5a8.75,8.75,0,0,0,17.5,0v-52.5a8.749,8.749,0,0,0-8.75-8.75Z"/>
    <path id="Path_11899" data-name="Path 11899" d="M428.75,245A43.743,43.743,0,0,1,385,201.25v-52.5a43.75,43.75,0,0,1,87.5,0v52.5A43.743,43.743,0,0,1,428.75,245Zm0-105a8.751,8.751,0,0,0-8.75,8.75v52.5a8.75,8.75,0,0,0,17.5,0v-52.5a8.749,8.749,0,0,0-8.75-8.75Z"/>
  </g>
</svg>
