<svg xmlns="http://www.w3.org/2000/svg" width="500.75" height="501.472" viewBox="0 0 500.75 501.472">
  <path id="Path_11974" data-name="Path 11974" d="M681.568,575.688,588.11,483.069c70.927-88.446,64.251-218.614-16.687-299.552C528.871,140.964,472.967,117.6,412.887,117.6a224.085,224.085,0,0,0-159.372,65.915C210.962,226.07,187.6,281.98,187.6,342.889S210.963,459.7,253.515,502.26c42.553,41.72,98.463,65.915,159.372,65.915,50.9,0,100.966-17.526,140.177-49.228l92.619,92.619a24.021,24.021,0,0,0,17.526,7.508c6.676,0,13.352-2.5,17.526-7.508a25.979,25.979,0,0,0,.832-35.882Zm-93.458-232.8a171.578,171.578,0,0,1-51.732,123.491c-33.373,32.542-76.765,51.732-123.491,51.732A171.577,171.577,0,0,1,289.4,466.379c-32.548-33.373-51.738-76.765-51.738-123.491A171.577,171.577,0,0,1,289.392,219.4c33.379-32.548,75.932-51.738,123.5-51.738a171.578,171.578,0,0,1,123.491,51.732C568.921,252.771,588.11,295.324,588.11,342.889Z" transform="translate(-187.6 -117.602)"/>
</svg>
