<svg xmlns="http://www.w3.org/2000/svg" width="757.18" height="616.364" viewBox="0 0 757.18 616.364">
  <g id="guest" transform="translate(-86.799 -57.39)">
    <path id="Path_11939" data-name="Path 11939" d="M258.623,393.578c72.31,0,131.138-58.862,131.138-131.222S330.932,131.134,258.623,131.134,127.473,190,127.473,262.356,186.308,393.578,258.623,393.578Zm0-214.774a83.558,83.558,0,1,1-83.485,83.558A83.613,83.613,0,0,1,258.623,178.8Z" transform="translate(17.022 30.861)"/>
    <path id="Path_11940" data-name="Path 11940" d="M493.829,367.189c85.409,0,154.9-69.489,154.9-154.9s-69.489-154.9-154.9-154.9-154.9,69.489-154.9,154.9S408.419,367.189,493.829,367.189Zm0-262.137A107.241,107.241,0,1,1,386.589,212.292,107.361,107.361,0,0,1,493.829,105.051Z" transform="translate(105.515 0)"/>
    <path id="Path_11941" data-name="Path 11941" d="M652.2,322.64H492.872a190.829,190.829,0,0,0-120.24,42.526,23.748,23.748,0,0,0-8.411-1.607l-121.331.006c-86.068,0-156.091,70.015-156.091,156.091v19.26a23.831,23.831,0,0,0,23.832,23.832H820.147a23.831,23.831,0,0,0,23.832-23.832V514.442c.006-105.75-86.04-191.794-191.794-191.794ZM301.078,514.434v.643H134.561A108.554,108.554,0,0,1,242.887,411.222h88.461a190.528,190.528,0,0,0-30.276,103.212Zm495.253.643H348.739l-.006-.643c0-79.474,64.663-144.133,144.133-144.133H652.192c79.474,0,144.133,64.663,144.133,144.133Z" transform="translate(0 111.005)"/>
  </g>
</svg>
