<svg xmlns="http://www.w3.org/2000/svg" width="384.994" height="478.332" viewBox="0 0 384.994 478.332">
  <g id="location" transform="translate(-157.504 -40.832)">
    <path id="Path_11895" data-name="Path 11895" d="M350,40.832a192.582,192.582,0,0,0-192.5,192.5c0,46.328,28.992,101.93,64.938,151.49a981.855,981.855,0,0,0,115.75,129.76,17.5,17.5,0,0,0,23.618,0,981.034,981.034,0,0,0,115.75-129.76c35.945-49.559,64.938-105.16,64.938-151.49A192.582,192.582,0,0,0,350,40.832Zm0,35a157.573,157.573,0,0,1,157.5,157.5c0,40.285-27.008,87.852-58.262,130.95v0A933.242,933.242,0,0,1,350,477.518a933.837,933.837,0,0,1-99.238-113.23c-31.254-43.1-58.262-90.664-58.262-130.95A157.573,157.573,0,0,1,350,75.836Zm0,58.332v0a99.219,99.219,0,1,0,70.106,29.059A99.161,99.161,0,0,0,350,134.168Zm0,35v0a64.191,64.191,0,1,1-45.367,18.8A64.147,64.147,0,0,1,350,169.168Z" fill-rule="evenodd"/>
  </g>
</svg>
